<svg width="88" height="88" viewBox="0 0 88 88" fill="none" xmlns="http://www.w3.org/2000/svg">
<path d="M40.9508 2.83082C41.9512 -0.0664754 46.0488 -0.0664811 47.0492 2.83082L52.2261 17.824C52.8577 19.6532 54.9467 20.5185 56.6868 19.6717L70.9523 12.7295C73.7087 11.3882 76.6061 14.2863 75.2641 17.0423L68.3216 31.3C67.4741 33.0404 68.3396 35.1301 70.1695 35.7616L85.1633 40.9356C88.0614 41.9357 88.0614 46.0343 85.1633 47.0344L70.1695 52.2084C68.3396 52.8399 67.4741 54.9296 68.3216 56.67L75.2641 70.9277C76.6061 73.6837 73.7087 76.5818 70.9523 75.2405L56.6868 68.2983C54.9467 67.4515 52.8577 68.3168 52.2261 70.146L47.0492 85.1392C46.0488 88.0365 41.9512 88.0365 40.9508 85.1392L35.7739 70.146C35.1423 68.3168 33.0533 67.4515 31.3132 68.2983L17.0477 75.2405C14.2913 76.5818 11.3939 73.6837 12.7359 70.9277L19.6784 56.67C20.5259 54.9296 19.6604 52.8399 17.8305 52.2084L2.83668 47.0344C-0.0613718 46.0343 -0.0613694 41.9357 2.83668 40.9356L17.8305 35.7616C19.6604 35.1301 20.5259 33.0404 19.6784 31.3L12.7359 17.0423C11.3939 14.2863 14.2913 11.3882 17.0477 12.7295L31.3132 19.6717C33.0533 20.5185 35.1423 19.6532 35.7739 17.824L40.9508 2.83082Z" fill="#4DC4FE"/>
</svg>
